<svg width="135" height="222" viewBox="0 0 135 222" fill="none" xmlns="http://www.w3.org/2000/svg">
<path d="M66.048 157.672C63.3173 157.672 57.8987 155.325 49.792 150.632C41.7707 146.024 36.1813 143.72 33.024 143.72C27.7333 149.523 23.8933 152.424 21.504 152.424C20.6507 152.424 19.072 151.059 16.768 148.328C14.5493 145.597 13.44 143.507 13.44 142.056C13.44 140.605 14.9333 138.771 17.92 136.552C20.9067 134.419 24.3627 133.352 28.288 133.352C32.2987 133.352 38.8693 134.632 48 137.192C57.1307 139.837 64.256 141.16 69.376 141.16C70.912 141.16 71.9787 140.819 72.576 140.136C73.2587 139.539 73.8987 138.728 74.496 137.704C75.1787 136.68 75.776 135.699 76.288 134.76C76.8853 133.907 77.2267 133.48 77.312 133.48L81.408 134.76C81.408 150.035 76.288 157.672 66.048 157.672ZM73.984 49.384C76.288 52.7973 77.9947 56.424 79.104 60.264C80.2133 64.0187 80.768 68.2 80.768 72.808C80.768 77.416 80.256 82.3227 79.232 87.528C78.208 92.7333 76.5013 97.9387 74.112 103.144C71.7227 108.349 68.8213 112.957 65.408 116.968C61.9947 120.979 57.6853 124.264 52.48 126.824C47.2747 129.299 41.5573 130.536 35.328 130.536C26.1973 130.536 19.1147 127.293 14.08 120.808C9.04533 114.237 6.528 105.832 6.528 95.592C6.528 85.2667 8.32 75.8373 11.904 67.304C15.5733 58.6853 20.7787 51.688 27.52 46.312C34.3467 40.8507 41.8987 38.12 50.176 38.12C55.6373 38.12 60.416 39.144 64.512 41.192C68.608 43.24 71.7653 45.9707 73.984 49.384ZM39.168 121.832C43.1787 121.832 46.5493 120.083 49.28 116.584C52.096 113.085 54.2293 108.52 55.68 102.888C58.5813 91.7947 60.032 80.4027 60.032 68.712C60.032 54.12 56.1067 46.824 48.256 46.824C43.7333 46.824 39.8507 49.4693 36.608 54.76C30.3787 64.8293 27.264 78.6533 27.264 96.232C27.264 105.875 27.8187 111.848 28.928 114.152C29.44 115.432 30.1227 116.755 30.976 118.12C32.512 120.595 35.2427 121.832 39.168 121.832Z" fill="#1A512E"/>
<path d="M109.136 187.152C104.016 187.152 98.896 186.256 93.776 184.464C90.064 185.872 85.776 186.576 80.912 186.576C79.824 186.576 78.832 186.512 77.936 186.384C77.936 182.544 79.696 173.072 83.216 157.968C86.736 142.864 88.496 134.32 88.496 132.336C88.496 130.352 88.112 128.592 87.344 127.056C86.64 125.52 85.904 124.368 85.136 123.6L84.08 122.544L84.464 120.144C86.064 119.824 89.744 119.376 95.504 118.8C101.328 118.16 106.256 117.84 110.288 117.84C125.904 117.84 133.712 122.864 133.712 132.912C133.712 137.584 132.112 141.392 128.912 144.336C125.776 147.28 121.872 149.264 117.2 150.288C121.616 150.8 125.328 152.4 128.336 155.088C131.344 157.712 132.848 161.456 132.848 166.32C132.848 172.336 130.608 177.328 126.128 181.296C121.648 185.2 115.984 187.152 109.136 187.152ZM105.872 153.552C104.72 153.552 103.44 153.648 102.032 153.84C99.536 164.784 97.936 172.72 97.232 177.648C98.64 178.48 100.56 178.896 102.992 178.896C106.704 178.896 109.488 177.36 111.344 174.288C113.2 171.216 114.128 167.76 114.128 163.92C114.128 160.016 113.424 157.328 112.016 155.856C110.672 154.32 108.624 153.552 105.872 153.552ZM104.624 146.544C107.44 146.544 109.648 145.488 111.248 143.376C114.128 139.728 115.568 135.696 115.568 131.28C115.568 126.8 114.032 124.56 110.96 124.56L107.792 124.944C107.728 127.44 106.384 134.64 103.76 146.544H104.624Z" fill="#653D3D" fill-opacity="0.8"/>
<path d="M93.776 184.464L94.1064 183.52L93.7622 183.4L93.4213 183.529L93.776 184.464ZM77.936 186.384H76.936V187.251L77.7946 187.374L77.936 186.384ZM83.216 157.968L82.2421 157.741L83.216 157.968ZM87.344 127.056L86.4349 127.473L86.442 127.488L86.4496 127.503L87.344 127.056ZM85.136 123.6L85.8431 122.893H85.8431L85.136 123.6ZM84.08 122.544L83.0926 122.386L83.0119 122.89L83.3729 123.251L84.08 122.544ZM84.464 120.144L84.2679 119.163L83.5864 119.3L83.4766 119.986L84.464 120.144ZM95.504 118.8L95.6035 119.795L95.6132 119.794L95.504 118.8ZM128.912 144.336L128.235 143.6L128.228 143.607L128.912 144.336ZM117.2 150.288L116.986 149.311L117.085 151.281L117.2 150.288ZM128.336 155.088L127.67 155.834L127.679 155.842L128.336 155.088ZM126.128 181.296L126.785 182.05L126.791 182.045L126.128 181.296ZM102.032 153.84L101.897 152.849L101.211 152.943L101.057 153.618L102.032 153.84ZM97.232 177.648L96.2421 177.507L96.1475 178.169L96.7233 178.509L97.232 177.648ZM111.344 174.288L112.2 174.805L111.344 174.288ZM112.016 155.856L111.263 156.515L111.278 156.531L111.293 156.547L112.016 155.856ZM111.248 143.376L110.463 142.756L110.457 142.764L110.451 142.772L111.248 143.376ZM110.96 124.56V123.56H110.9L110.84 123.567L110.96 124.56ZM107.792 124.944L107.672 123.951L106.814 124.055L106.792 124.918L107.792 124.944ZM103.76 146.544L102.783 146.329L102.516 147.544H103.76V146.544ZM109.136 186.152C104.135 186.152 99.1265 185.277 94.1064 183.52L93.4457 185.408C98.6655 187.235 103.897 188.152 109.136 188.152V186.152ZM93.4213 183.529C89.845 184.886 85.6812 185.576 80.912 185.576V187.576C85.8708 187.576 90.283 186.858 94.1307 185.399L93.4213 183.529ZM80.912 185.576C79.8622 185.576 78.9183 185.514 78.0774 185.394L77.7946 187.374C78.7457 187.51 79.7858 187.576 80.912 187.576V185.576ZM78.936 186.384C78.936 184.567 79.3586 181.322 80.2392 176.583C81.1153 171.868 82.4315 165.74 84.1899 158.195L82.2421 157.741C80.4805 165.3 79.1567 171.46 78.2728 176.217C77.3934 180.95 76.936 184.361 76.936 186.384H78.936ZM84.1899 158.195C85.9506 150.64 87.2729 144.718 88.1554 140.434C88.5966 138.292 88.9294 136.552 89.1523 135.219C89.3711 133.91 89.496 132.926 89.496 132.336H87.496C87.496 132.738 87.4009 133.566 87.1797 134.889C86.9626 136.188 86.6354 137.9 86.1966 140.03C85.3191 144.29 84.0014 150.192 82.2421 157.741L84.1899 158.195ZM89.496 132.336C89.496 130.221 89.0859 128.304 88.2384 126.609L86.4496 127.503C87.1381 128.88 87.496 130.483 87.496 132.336H89.496ZM88.2531 126.639C87.524 125.049 86.7285 123.778 85.8431 122.893L84.4289 124.307C85.0795 124.958 85.756 125.991 86.4349 127.473L88.2531 126.639ZM85.8431 122.893L84.7871 121.837L83.3729 123.251L84.4289 124.307L85.8431 122.893ZM85.0674 122.702L85.4514 120.302L83.4766 119.986L83.0926 122.386L85.0674 122.702ZM84.6601 121.125C86.2024 120.816 89.8294 120.372 95.6035 119.795L95.4045 117.805C89.6586 118.38 85.9256 118.832 84.2679 119.163L84.6601 121.125ZM95.6132 119.794C101.416 119.156 106.305 118.84 110.288 118.84V116.84C106.207 116.84 101.24 117.164 95.3948 117.806L95.6132 119.794ZM110.288 118.84C118.021 118.84 123.648 120.09 127.315 122.449C130.906 124.76 132.712 128.195 132.712 132.912H134.712C134.712 127.581 132.614 123.48 128.397 120.767C124.256 118.102 118.171 116.84 110.288 116.84V118.84ZM132.712 132.912C132.712 137.328 131.213 140.861 128.235 143.6L129.589 145.072C133.011 141.923 134.712 137.84 134.712 132.912H132.712ZM128.228 143.607C125.237 146.414 121.502 148.321 116.986 149.311L117.414 151.265C122.242 150.207 126.315 148.146 129.596 145.065L128.228 143.607ZM117.085 151.281C121.318 151.772 124.831 153.297 127.67 155.834L129.002 154.342C125.825 151.503 121.914 149.828 117.315 149.295L117.085 151.281ZM127.679 155.842C130.422 158.235 131.848 161.676 131.848 166.32H133.848C133.848 161.236 132.266 157.189 128.993 154.334L127.679 155.842ZM131.848 166.32C131.848 172.051 129.729 176.77 125.465 180.547L126.791 182.045C131.487 177.886 133.848 172.621 133.848 166.32H131.848ZM125.471 180.542C121.201 184.263 115.782 186.152 109.136 186.152V188.152C116.186 188.152 122.095 186.137 126.785 182.05L125.471 180.542ZM105.872 152.552C104.666 152.552 103.34 152.652 101.897 152.849L102.167 154.831C103.54 154.644 104.774 154.552 105.872 154.552V152.552ZM101.057 153.618C98.5606 164.564 96.9524 172.534 96.2421 177.507L98.222 177.789C98.9197 172.906 100.511 165.004 103.007 154.062L101.057 153.618ZM96.7233 178.509C98.3427 179.466 100.462 179.896 102.992 179.896V177.896C100.658 177.896 98.9373 177.494 97.7407 176.787L96.7233 178.509ZM102.992 179.896C107.04 179.896 110.155 178.189 112.2 174.805L110.488 173.771C108.821 176.531 106.368 177.896 102.992 177.896V179.896ZM112.2 174.805C114.157 171.566 115.128 167.929 115.128 163.92H113.128C113.128 167.591 112.243 170.866 110.488 173.771L112.2 174.805ZM115.128 163.92C115.128 159.966 114.429 156.932 112.739 155.165L111.293 156.547C112.419 157.724 113.128 160.066 113.128 163.92H115.128ZM112.769 155.197C111.175 153.376 108.807 152.552 105.872 152.552V154.552C108.441 154.552 110.169 155.264 111.263 156.515L112.769 155.197ZM104.624 147.544C107.73 147.544 110.243 146.359 112.045 143.98L110.451 142.772C109.053 144.617 107.15 145.544 104.624 145.544V147.544ZM112.033 143.996C115.044 140.181 116.568 135.933 116.568 131.28H114.568C114.568 135.459 113.212 139.275 110.463 142.756L112.033 143.996ZM116.568 131.28C116.568 128.957 116.175 127.037 115.241 125.674C114.26 124.244 112.775 123.56 110.96 123.56V125.56C112.217 125.56 113.036 125.996 113.591 126.806C114.193 127.682 114.568 129.123 114.568 131.28H116.568ZM110.84 123.567L107.672 123.951L107.912 125.937L111.08 125.553L110.84 123.567ZM106.792 124.918C106.763 126.074 106.427 128.421 105.753 132.033C105.084 135.617 104.094 140.381 102.783 146.329L104.737 146.759C106.05 140.803 107.044 136.015 107.719 132.399C108.389 128.811 108.757 126.31 108.792 124.97L106.792 124.918ZM103.76 147.544H104.624V145.544H103.76V147.544Z" fill="black"/>
<path d="M93.776 184.464L94.1064 183.52L93.7622 183.4L93.4213 183.529L93.776 184.464ZM77.936 186.384H76.936V187.251L77.7946 187.374L77.936 186.384ZM83.216 157.968L82.2421 157.741L83.216 157.968ZM87.344 127.056L86.4349 127.473L86.442 127.488L86.4496 127.503L87.344 127.056ZM85.136 123.6L85.8431 122.893H85.8431L85.136 123.6ZM84.08 122.544L83.0926 122.386L83.0119 122.89L83.3729 123.251L84.08 122.544ZM84.464 120.144L84.2679 119.163L83.5864 119.3L83.4766 119.986L84.464 120.144ZM95.504 118.8L95.6035 119.795L95.6132 119.794L95.504 118.8ZM128.912 144.336L128.235 143.6L128.228 143.607L128.912 144.336ZM117.2 150.288L116.986 149.311L117.085 151.281L117.2 150.288ZM128.336 155.088L127.67 155.834L127.679 155.842L128.336 155.088ZM126.128 181.296L126.785 182.05L126.791 182.045L126.128 181.296ZM102.032 153.84L101.897 152.849L101.211 152.943L101.057 153.618L102.032 153.84ZM97.232 177.648L96.2421 177.507L96.1475 178.169L96.7233 178.509L97.232 177.648ZM111.344 174.288L112.2 174.805L111.344 174.288ZM112.016 155.856L111.263 156.515L111.278 156.531L111.293 156.547L112.016 155.856ZM111.248 143.376L110.463 142.756L110.457 142.764L110.451 142.772L111.248 143.376ZM110.96 124.56V123.56H110.9L110.84 123.567L110.96 124.56ZM107.792 124.944L107.672 123.951L106.814 124.055L106.792 124.918L107.792 124.944ZM103.76 146.544L102.783 146.329L102.516 147.544H103.76V146.544ZM109.136 186.152C104.135 186.152 99.1265 185.277 94.1064 183.52L93.4457 185.408C98.6655 187.235 103.897 188.152 109.136 188.152V186.152ZM93.4213 183.529C89.845 184.886 85.6812 185.576 80.912 185.576V187.576C85.8708 187.576 90.283 186.858 94.1307 185.399L93.4213 183.529ZM80.912 185.576C79.8622 185.576 78.9183 185.514 78.0774 185.394L77.7946 187.374C78.7457 187.51 79.7858 187.576 80.912 187.576V185.576ZM78.936 186.384C78.936 184.567 79.3586 181.322 80.2392 176.583C81.1153 171.868 82.4315 165.74 84.1899 158.195L82.2421 157.741C80.4805 165.3 79.1567 171.46 78.2728 176.217C77.3934 180.95 76.936 184.361 76.936 186.384H78.936ZM84.1899 158.195C85.9506 150.64 87.2729 144.718 88.1554 140.434C88.5966 138.292 88.9294 136.552 89.1523 135.219C89.3711 133.91 89.496 132.926 89.496 132.336H87.496C87.496 132.738 87.4009 133.566 87.1797 134.889C86.9626 136.188 86.6354 137.9 86.1966 140.03C85.3191 144.29 84.0014 150.192 82.2421 157.741L84.1899 158.195ZM89.496 132.336C89.496 130.221 89.0859 128.304 88.2384 126.609L86.4496 127.503C87.1381 128.88 87.496 130.483 87.496 132.336H89.496ZM88.2531 126.639C87.524 125.049 86.7285 123.778 85.8431 122.893L84.4289 124.307C85.0795 124.958 85.756 125.991 86.4349 127.473L88.2531 126.639ZM85.8431 122.893L84.7871 121.837L83.3729 123.251L84.4289 124.307L85.8431 122.893ZM85.0674 122.702L85.4514 120.302L83.4766 119.986L83.0926 122.386L85.0674 122.702ZM84.6601 121.125C86.2024 120.816 89.8294 120.372 95.6035 119.795L95.4045 117.805C89.6586 118.38 85.9256 118.832 84.2679 119.163L84.6601 121.125ZM95.6132 119.794C101.416 119.156 106.305 118.84 110.288 118.84V116.84C106.207 116.84 101.24 117.164 95.3948 117.806L95.6132 119.794ZM110.288 118.84C118.021 118.84 123.648 120.09 127.315 122.449C130.906 124.76 132.712 128.195 132.712 132.912H134.712C134.712 127.581 132.614 123.48 128.397 120.767C124.256 118.102 118.171 116.84 110.288 116.84V118.84ZM132.712 132.912C132.712 137.328 131.213 140.861 128.235 143.6L129.589 145.072C133.011 141.923 134.712 137.84 134.712 132.912H132.712ZM128.228 143.607C125.237 146.414 121.502 148.321 116.986 149.311L117.414 151.265C122.242 150.207 126.315 148.146 129.596 145.065L128.228 143.607ZM117.085 151.281C121.318 151.772 124.831 153.297 127.67 155.834L129.002 154.342C125.825 151.503 121.914 149.828 117.315 149.295L117.085 151.281ZM127.679 155.842C130.422 158.235 131.848 161.676 131.848 166.32H133.848C133.848 161.236 132.266 157.189 128.993 154.334L127.679 155.842ZM131.848 166.32C131.848 172.051 129.729 176.77 125.465 180.547L126.791 182.045C131.487 177.886 133.848 172.621 133.848 166.32H131.848ZM125.471 180.542C121.201 184.263 115.782 186.152 109.136 186.152V188.152C116.186 188.152 122.095 186.137 126.785 182.05L125.471 180.542ZM105.872 152.552C104.666 152.552 103.34 152.652 101.897 152.849L102.167 154.831C103.54 154.644 104.774 154.552 105.872 154.552V152.552ZM101.057 153.618C98.5606 164.564 96.9524 172.534 96.2421 177.507L98.222 177.789C98.9197 172.906 100.511 165.004 103.007 154.062L101.057 153.618ZM96.7233 178.509C98.3427 179.466 100.462 179.896 102.992 179.896V177.896C100.658 177.896 98.9373 177.494 97.7407 176.787L96.7233 178.509ZM102.992 179.896C107.04 179.896 110.155 178.189 112.2 174.805L110.488 173.771C108.821 176.531 106.368 177.896 102.992 177.896V179.896ZM112.2 174.805C114.157 171.566 115.128 167.929 115.128 163.92H113.128C113.128 167.591 112.243 170.866 110.488 173.771L112.2 174.805ZM115.128 163.92C115.128 159.966 114.429 156.932 112.739 155.165L111.293 156.547C112.419 157.724 113.128 160.066 113.128 163.92H115.128ZM112.769 155.197C111.175 153.376 108.807 152.552 105.872 152.552V154.552C108.441 154.552 110.169 155.264 111.263 156.515L112.769 155.197ZM104.624 147.544C107.73 147.544 110.243 146.359 112.045 143.98L110.451 142.772C109.053 144.617 107.15 145.544 104.624 145.544V147.544ZM112.033 143.996C115.044 140.181 116.568 135.933 116.568 131.28H114.568C114.568 135.459 113.212 139.275 110.463 142.756L112.033 143.996ZM116.568 131.28C116.568 128.957 116.175 127.037 115.241 125.674C114.26 124.244 112.775 123.56 110.96 123.56V125.56C112.217 125.56 113.036 125.996 113.591 126.806C114.193 127.682 114.568 129.123 114.568 131.28H116.568ZM110.84 123.567L107.672 123.951L107.912 125.937L111.08 125.553L110.84 123.567ZM106.792 124.918C106.763 126.074 106.427 128.421 105.753 132.033C105.084 135.617 104.094 140.381 102.783 146.329L104.737 146.759C106.05 140.803 107.044 136.015 107.719 132.399C108.389 128.811 108.757 126.31 108.792 124.97L106.792 124.918ZM103.76 147.544H104.624V145.544H103.76V147.544Z" fill="black" fill-opacity="0.58"/>
</svg>
