<svg width="131" height="222" viewBox="0 0 131 222" fill="none" xmlns="http://www.w3.org/2000/svg">
<path d="M66.048 157.672C63.3173 157.672 57.8987 155.325 49.792 150.632C41.7707 146.024 36.1813 143.72 33.024 143.72C27.7333 149.523 23.8933 152.424 21.504 152.424C20.6507 152.424 19.072 151.059 16.768 148.328C14.5493 145.597 13.44 143.507 13.44 142.056C13.44 140.605 14.9333 138.771 17.92 136.552C20.9067 134.419 24.3627 133.352 28.288 133.352C32.2987 133.352 38.8693 134.632 48 137.192C57.1307 139.837 64.256 141.16 69.376 141.16C70.912 141.16 71.9787 140.819 72.576 140.136C73.2587 139.539 73.8987 138.728 74.496 137.704C75.1787 136.68 75.776 135.699 76.288 134.76C76.8853 133.907 77.2267 133.48 77.312 133.48L81.408 134.76C81.408 150.035 76.288 157.672 66.048 157.672ZM73.984 49.384C76.288 52.7973 77.9947 56.424 79.104 60.264C80.2133 64.0187 80.768 68.2 80.768 72.808C80.768 77.416 80.256 82.3227 79.232 87.528C78.208 92.7333 76.5013 97.9387 74.112 103.144C71.7227 108.349 68.8213 112.957 65.408 116.968C61.9947 120.979 57.6853 124.264 52.48 126.824C47.2747 129.299 41.5573 130.536 35.328 130.536C26.1973 130.536 19.1147 127.293 14.08 120.808C9.04533 114.237 6.528 105.832 6.528 95.592C6.528 85.2667 8.32 75.8373 11.904 67.304C15.5733 58.6853 20.7787 51.688 27.52 46.312C34.3467 40.8507 41.8987 38.12 50.176 38.12C55.6373 38.12 60.416 39.144 64.512 41.192C68.608 43.24 71.7653 45.9707 73.984 49.384ZM39.168 121.832C43.1787 121.832 46.5493 120.083 49.28 116.584C52.096 113.085 54.2293 108.52 55.68 102.888C58.5813 91.7947 60.032 80.4027 60.032 68.712C60.032 54.12 56.1067 46.824 48.256 46.824C43.7333 46.824 39.8507 49.4693 36.608 54.76C30.3787 64.8293 27.264 78.6533 27.264 96.232C27.264 105.875 27.8187 111.848 28.928 114.152C29.44 115.432 30.1227 116.755 30.976 118.12C32.512 120.595 35.2427 121.832 39.168 121.832Z" fill="#1A512E"/>
<path d="M105.68 187.152C102.224 187.152 97.84 186.512 92.528 185.232C89.2 186.128 86.096 186.576 83.216 186.576C80.336 186.576 78.672 186.48 78.224 186.288C78.672 182.448 80.56 173.008 83.888 157.968C87.28 142.864 88.976 133.392 88.976 129.552C88.976 128.784 88.56 127.76 87.728 126.48C86.896 125.2 86.064 124.112 85.232 123.216L83.984 121.872L84.272 120.432C92.656 118.704 101.68 117.84 111.344 117.84C116.656 117.84 121.008 119.12 124.4 121.68C127.856 124.176 129.584 127.696 129.584 132.24C129.584 141.008 124.24 147.088 113.552 150.48C117.84 150.992 121.424 152.624 124.304 155.376C127.248 158.064 128.72 161.872 128.72 166.8C128.72 172.816 126.544 177.712 122.192 181.488C117.84 185.264 112.336 187.152 105.68 187.152ZM103.952 153.072C102.16 153.072 100.56 153.232 99.152 153.552C96.4 165.712 94.64 174.192 93.872 178.992C95.472 180.08 97.968 180.624 101.36 180.624C104.816 180.624 107.76 179.28 110.192 176.592C112.624 173.84 113.84 169.904 113.84 164.784C113.84 156.976 110.544 153.072 103.952 153.072ZM109.328 123.792C106.896 123.792 105.456 124.016 105.008 124.464C104.112 130.224 102.64 137.776 100.592 147.12C103.152 147.12 104.944 146.96 105.968 146.64C106.992 146.32 107.888 145.904 108.656 145.392C109.488 144.88 110.416 144.08 111.44 142.992C113.68 140.624 114.8 136.848 114.8 131.664C114.8 126.416 112.976 123.792 109.328 123.792Z" fill="#836868"/>
</svg>
