<svg width="387" height="301" viewBox="0 0 387 301" fill="none" xmlns="http://www.w3.org/2000/svg">
<rect width="387" height="301" fill="white"/>
<path d="M203.536 190.504C201.488 190.504 197.424 188.744 191.344 185.224C185.328 181.768 181.136 180.04 178.768 180.04C174.8 184.392 171.92 186.568 170.128 186.568C169.488 186.568 168.304 185.544 166.576 183.496C164.912 181.448 164.08 179.88 164.08 178.792C164.08 177.704 165.2 176.328 167.44 174.664C169.68 173.064 172.272 172.264 175.216 172.264C178.224 172.264 183.152 173.224 190 175.144C196.848 177.128 202.192 178.12 206.032 178.12C207.184 178.12 207.984 177.864 208.432 177.352C208.944 176.904 209.424 176.296 209.872 175.528C210.384 174.76 210.832 174.024 211.216 173.32C211.664 172.68 211.92 172.36 211.984 172.36L215.056 173.32C215.056 184.776 211.216 190.504 203.536 190.504ZM209.488 109.288C211.216 111.848 212.496 114.568 213.328 117.448C214.16 120.264 214.576 123.4 214.576 126.856C214.576 130.312 214.192 133.992 213.424 137.896C212.656 141.8 211.376 145.704 209.584 149.608C207.792 153.512 205.616 156.968 203.056 159.976C200.496 162.984 197.264 165.448 193.36 167.368C189.456 169.224 185.168 170.152 180.496 170.152C173.648 170.152 168.336 167.72 164.56 162.856C160.784 157.928 158.896 151.624 158.896 143.944C158.896 136.2 160.24 129.128 162.928 122.728C165.68 116.264 169.584 111.016 174.64 106.984C179.76 102.888 185.424 100.84 191.632 100.84C195.728 100.84 199.312 101.608 202.384 103.144C205.456 104.68 207.824 106.728 209.488 109.288ZM183.376 163.624C186.384 163.624 188.912 162.312 190.96 159.688C193.072 157.064 194.672 153.64 195.76 149.416C197.936 141.096 199.024 132.552 199.024 123.784C199.024 112.84 196.08 107.368 190.192 107.368C186.8 107.368 183.888 109.352 181.456 113.32C176.784 120.872 174.448 131.24 174.448 144.424C174.448 151.656 174.864 156.136 175.696 157.864C176.08 158.824 176.592 159.816 177.232 160.84C178.384 162.696 180.432 163.624 183.376 163.624Z" fill="#1A512E"/>
<path d="M230.12 205.768C227.816 205.768 224.893 205.341 221.352 204.488C219.133 205.085 217.064 205.384 215.144 205.384C213.224 205.384 212.115 205.32 211.816 205.192C212.115 202.632 213.373 196.339 215.592 186.312C217.853 176.243 218.984 169.928 218.984 167.368C218.984 166.856 218.707 166.173 218.152 165.32C217.597 164.467 217.043 163.741 216.488 163.144L215.656 162.248L215.848 161.288C221.437 160.136 227.453 159.56 233.896 159.56C237.437 159.56 240.339 160.413 242.6 162.12C244.904 163.784 246.056 166.131 246.056 169.16C246.056 175.005 242.493 179.059 235.368 181.32C238.227 181.661 240.616 182.749 242.536 184.584C244.499 186.376 245.48 188.915 245.48 192.2C245.48 196.211 244.029 199.475 241.128 201.992C238.227 204.509 234.557 205.768 230.12 205.768ZM228.968 183.048C227.773 183.048 226.707 183.155 225.768 183.368C223.933 191.475 222.76 197.128 222.248 200.328C223.315 201.053 224.979 201.416 227.24 201.416C229.544 201.416 231.507 200.52 233.128 198.728C234.749 196.893 235.56 194.269 235.56 190.856C235.56 185.651 233.363 183.048 228.968 183.048ZM232.552 163.528C230.931 163.528 229.971 163.677 229.672 163.976C229.075 167.816 228.093 172.851 226.728 179.08C228.435 179.08 229.629 178.973 230.312 178.76C230.995 178.547 231.592 178.269 232.104 177.928C232.659 177.587 233.277 177.053 233.96 176.328C235.453 174.749 236.2 172.232 236.2 168.776C236.2 165.277 234.984 163.528 232.552 163.528Z" fill="#836868"/>
</svg>
